<svg xmlns="http://www.w3.org/2000/svg" viewBox="0 0 820 330" width="820" height="330" role="img" aria-label="Oppervlakte van een rond of vierkant mangat">
  <title>Oppervlakte van een rond of vierkant mangat</title>
  <desc>Rond mangat van 80 cm doorsnede is 0,50 m²; vierkant mangat van 70 bij 70 cm is 0,49 m².</desc>
  <rect width="100%" height="100%" rx="6" fill="#FCFBF7" />
  <text x="410" y="34" font-family="ui-rounded, 'Segoe UI', 'Trebuchet MS', system-ui, -apple-system, sans-serif" font-size="20" fill="#33383D" text-anchor="middle" font-weight="700">De binnenmaat van het mangat opmeten</text>
  <ellipse cx="220" cy="176" rx="86" ry="86" fill="#2257BF" fill-opacity="0.08" stroke="none" />
  <path d="M305.84 175.58 C306.93 179.05 305 183.75 305.53 187.29 M304.85 187.1 C303.52 190.63 303.93 194.37 303.45 197.6 M303.53 197.59 C302.36 201.55 301.08 205.46 299.26 208.41 M299.26 207.97 C298.27 211.78 297.08 215.87 294.49 218.5 M295.26 218.67 C293.36 220.66 291.26 224.94 289.07 227.42 M289.35 227.38 C286.47 229.79 283.74 233.11 282.13 235.71 M281.82 236.01 C280.29 237.66 275.87 240.4 273.27 242.94 M274.01 243.44 C270.62 246.13 267.07 247.26 264.29 249.6 M264.5 249.85 C262.38 250.75 257.41 252.64 254.37 255.09 M255.25 254.77 C251.71 256.88 247.97 257.77 244.04 258.65 M244 258.37 C240.97 257.93 237.12 259.7 233.82 260.49 M233.47 260.55 C230.74 261.65 226.39 261.14 222.9 262.15 M223.24 262.31 C219.47 262.67 215.39 261.87 211.36 261.55 M211.75 261.54 C208.33 260.59 203.96 259.35 200.62 259.99 M200.84 259.6 C197.83 258.41 193.54 258 189.78 256.71 M189.95 256.64 C187.21 255.25 183 252.52 180.63 251.87 M180.34 251.77 C177.69 251.56 173.33 247.62 170.98 246.13 M171.32 246.28 C167.95 244.03 164.71 240.74 161.72 239.35 M162.55 239.22 C160.08 237.27 157.17 234.14 154.46 232.22 M154.84 231.66 C153.26 228.29 149.05 225.35 147.71 223.39 M147.56 222.55 C145.42 219.84 144.24 215.35 142.09 213.43 M142.05 213.27 C141.61 209.92 138.51 206.13 137.95 203.18 M138.53 203.29 C138.61 200.16 136.8 195.38 135.57 192.95 M135.55 192.86 C135.91 188.97 134.58 184.87 133.9 181.67 M134.48 181.4 C133.52 177.8 133.94 173.49 134.61 170.06 M134.35 170.51 C133.63 167.53 135.57 162.93 135.97 159.9 M135.76 159.09 C136.78 156.43 137.66 152.04 137.97 149.19 M138.22 148.57 C139.55 145.97 141.33 141.88 142.85 139.06 M142.86 139.18 C143.96 136.13 145.74 131.57 147.68 129.14 M147.8 128.72 C149.64 126.65 153.42 123.23 154.05 120.4 M154.62 119.76 C156.33 117.26 159.88 114.45 162.09 111.91 M162.56 111.92 C165.5 109.69 168.2 107.7 170.73 105.77 M170.53 105.31 C172.82 103.32 177.15 101.46 180.54 100.06 M180.31 99.24 C183.12 98.23 186.83 97.1 189.97 95.47 M189.8 94.84 C193.3 95.59 197.94 94.17 200.95 92.46 M200.57 91.99 C204.28 91.26 208.24 89.59 212.16 90.6 M212.12 90.22 C214.86 90.95 219.77 90.77 222.83 89.84 M222.4 89.8 C225.98 91.04 230.82 90.98 234.15 91.15 M234.06 91.31 C236.64 92.47 241.78 93.44 244.89 93.78 M244.16 93.49 C247.7 95.01 251.28 96.7 254.39 96.99 M254.46 97.85 C257.3 98.93 261.2 101.35 264.25 102.18 M264.31 102.41 C266.83 103.9 270.69 107.17 273.12 108.72 M273.14 108.25 C276.94 111.77 278.49 113.85 281.9 116.67 M282.03 116.64 C283.48 119.6 287.36 121.97 288.63 124.47 M288.71 124.86 C290.95 126.78 293.52 131.38 295.42 134.18 M295.4 134.32 C296.71 136.74 298.35 140.9 299.37 143.63 M299.84 143.55 C301.28 147.02 302.6 150.93 303.47 154.68 M302.93 154.25 C303.46 157.43 304.72 161.88 304.83 164.59 M305.12 165.31 C305.2 168.28 306.87 172.86 305.87 176.35" stroke="#33383D" stroke-width="2" fill="none" stroke-linecap="round" stroke-linejoin="round" />
  <path d="M305.82 175.81 C305.68 179.22 305.98 184.07 305.15 186.68 M305.4 187.12 C303.82 190.22 303.91 194.16 303.17 197.85 M302.92 197.58 C302.36 200.81 299.91 205.4 300.11 208.51 M300.01 208.59 C298.09 211.6 295.99 214.92 295.22 217.8 M294.76 217.94 C293.92 221.2 290.82 224.78 289.41 226.94 M288.4 227.65 C286.52 229.53 284.57 233.85 281.63 235.93 M281.48 235.53 C279.39 237.36 275.83 240.33 274.07 243.13 M274.01 243.65 C270.72 245.13 267.43 247.66 264.59 249.51 M264.49 249.63 C261.45 251.66 258.14 253.53 254.32 254.32 M254.59 254.43 C251.35 254.47 247.94 257.28 244.24 258 M244.05 258.22 C241.39 258.88 236.61 259.02 234 261.24 M234.05 260.86 C230.33 261.53 226.24 260.42 222.75 261.9 M222.81 261.81 C219.39 261.12 215 261.17 211.81 261.53 M212.16 261.19 C208.22 261.84 203.74 260.31 200.45 259.71 M200.7 259.93 C197.62 259.56 193.53 258.53 190.45 256.36 M189.84 256.56 C187.71 256.42 183.18 253.76 180.02 252.55 M180.48 252.45 C177.43 250.2 173.92 247.47 171.03 246.1 M170.38 246.86 C167.93 245.45 164.54 242.57 161.85 239.29 M161.77 239.63 C158.89 238.24 157.02 234.74 154.4 231.4 M154.85 231.73 C151.66 228.93 148.89 226.22 147.92 223.36 M147.64 223.08 C146.82 220.49 144.15 216.08 142.76 213.79 M142.78 213.69 C141.72 210.3 140.17 206.42 138.88 203.1 M138.02 203.52 C138.09 199.86 135.84 195.93 135.08 192.18 M135.18 192.72 C134.41 189.38 134.9 184.78 134.32 181.81 M133.95 181.76 C134.19 177.86 134.15 174.17 133.84 170.97 M133.73 170.25 C134.63 167.32 134.71 162.94 135.43 159.92 M135.78 159.25 C135.89 156.01 137.41 151.87 138.07 149.24 M138.36 148.69 C139.4 146.37 140.19 141.58 142.68 138.53 M142.17 138.7 C143.87 135.65 147.13 132.66 147.97 128.72 M148.22 128.88 C149.43 125.63 152.53 123.05 154.27 119.99 M154.85 120.42 C156.8 117.43 160.05 114.06 162.18 112.74 M162.26 112.61 C165.48 109.88 168.43 108.05 170.79 105.11 M171.18 105.5 C173.88 104.4 177.75 102.01 180.56 99.56 M179.96 100.25 C183.17 97.48 187.91 97.18 190.4 95.29 M190.1 95.23 C193.7 94.4 197.53 93.77 201.13 91.99 M201.13 92.45 C204.22 91.35 208.92 91.61 211.6 90.22 M211.29 90.58 C214.69 91.22 219.19 90.11 222.28 89.66 M222.87 89.55 C226.5 89.65 230 90.17 233.21 90.66 M233.88 91.47 C236.81 92.55 241.43 93.74 244.33 93.87 M244.95 93.46 C246.94 95.07 251.99 96.01 255.07 97.88 M254.39 97.01 C257.83 98.12 261.38 100.41 264.31 102.45 M264.18 102.49 C267.75 104.25 270.9 106.93 273.67 108.31 M273.14 108.6 C276.5 111.82 279.94 114.95 282.23 116.11 M281.44 116.65 C284.25 118.22 286.51 122.12 288.7 124.62 M288.81 124.34 C291.03 127.05 293.86 130.88 295.12 133.63 M294.91 134.27 C295.92 137.15 298.66 141 299.42 143.76 M299.89 143.87 C301.26 146.62 301.88 150.48 302.89 153.98 M303.46 154.39 C302.82 157.5 303.6 161.62 304.99 165.18 M304.97 164.51 C306.11 168.58 306.49 172.6 305.82 175.98" stroke="#33383D" stroke-width="2" fill="none" stroke-linecap="round" stroke-linejoin="round" stroke-opacity="0.7" />
  <path d="M135.94 174.45 C186.8 180.94 253.91 174.11 306.6 175.02" stroke="#2257BF" stroke-width="1.3" fill="none" stroke-linecap="round" stroke-linejoin="round" />
  <path d="M306.24 175.81 C304.06 176.29 301.27 177.22 299.65 178.21" stroke="#2257BF" stroke-width="1.3" fill="none" stroke-linecap="round" stroke-linejoin="round" />
  <path d="M305.75 175.7 C304.01 175.47 301.58 173.64 299.63 173.87" stroke="#2257BF" stroke-width="1.3" fill="none" stroke-linecap="round" stroke-linejoin="round" />
  <path d="M133.86 175.78 C135.94 174.48 138.94 174.24 140.81 173.51" stroke="#2257BF" stroke-width="1.3" fill="none" stroke-linecap="round" stroke-linejoin="round" />
  <path d="M133.68 176.06 C135.83 176.59 138.47 176.96 140.49 178.39" stroke="#2257BF" stroke-width="1.3" fill="none" stroke-linecap="round" stroke-linejoin="round" />
  <path d="M133.62 170.66 C133.21 174.12 134.66 178.15 133.97 180.56" stroke="#2257BF" stroke-width="1.3" fill="none" stroke-linecap="round" stroke-linejoin="round" />
  <path d="M305.6 171.39 C307.03 173.73 306.3 177.61 305.45 181.28" stroke="#2257BF" stroke-width="1.3" fill="none" stroke-linecap="round" stroke-linejoin="round" />
  <text x="220" y="162" font-family="ui-rounded, 'Segoe UI', 'Trebuchet MS', system-ui, -apple-system, sans-serif" font-size="13" fill="#2257BF" text-anchor="middle" font-weight="500">⌀ 80 cm</text>
  <text x="220" y="68" font-family="ui-rounded, 'Segoe UI', 'Trebuchet MS', system-ui, -apple-system, sans-serif" font-size="14.5" fill="#33383D" text-anchor="middle" font-weight="700">rond mangat</text>
  <text x="220" y="296" font-family="ui-rounded, 'Segoe UI', 'Trebuchet MS', system-ui, -apple-system, sans-serif" font-size="14" fill="#2257BF" text-anchor="middle" font-weight="600">π × 0,40² = 0,50 m²</text>
  <path d="M520 90 L692 90 L692 262 L520 262 Z" fill="#2257BF" fill-opacity="0.08" stroke="none" />
  <path d="M518.23 92.04 C571.77 90.77 639.57 91.26 692.79 89.79 M691.79 90.6 C688.11 141.92 694.49 210.12 693.22 262.71 M690.02 261.65 C640.91 262.4 572.05 262.85 517.62 263.41 M517.65 262.5 C520.27 211.21 518.73 139.62 519.72 90.83" stroke="#33383D" stroke-width="2" fill="none" stroke-linecap="round" stroke-linejoin="round" />
  <path d="M520.01 90.72 C573.04 91.63 639.83 88.22 693.68 90.64 M694.37 89.19 C690.73 140.78 697.19 210.93 690.14 260.63 M693.25 262.34 C641.19 258.71 571.46 259.8 520.13 261.94 M518.47 260.42 C515.91 211.92 521.04 142.78 522.23 87.61" stroke="#33383D" stroke-width="2" fill="none" stroke-linecap="round" stroke-linejoin="round" stroke-opacity="0.7" />
  <path d="M520.53 176.49 C570.14 178.23 639.73 175.41 693.86 177.35" stroke="#2257BF" stroke-width="1.3" fill="none" stroke-linecap="round" stroke-linejoin="round" />
  <path d="M691.76 176.24 C690.22 176.7 687.14 178.36 685.49 178.13" stroke="#2257BF" stroke-width="1.3" fill="none" stroke-linecap="round" stroke-linejoin="round" />
  <path d="M692.05 176.29 C689.82 175.55 687.44 173.7 685.41 173.68" stroke="#2257BF" stroke-width="1.3" fill="none" stroke-linecap="round" stroke-linejoin="round" />
  <path d="M520.3 175.98 C521.98 175.15 524.44 174.72 526.6 173.39" stroke="#2257BF" stroke-width="1.3" fill="none" stroke-linecap="round" stroke-linejoin="round" />
  <path d="M520.16 175.93 C522.19 177.12 524.42 177.63 526.6 178.19" stroke="#2257BF" stroke-width="1.3" fill="none" stroke-linecap="round" stroke-linejoin="round" />
  <path d="M520.45 171.65 C521.02 174.01 521.85 178.11 520.03 181.11" stroke="#2257BF" stroke-width="1.3" fill="none" stroke-linecap="round" stroke-linejoin="round" />
  <path d="M691.76 171.12 C691.74 173.77 693.29 178.02 692.67 181.5" stroke="#2257BF" stroke-width="1.3" fill="none" stroke-linecap="round" stroke-linejoin="round" />
  <text x="606" y="162" font-family="ui-rounded, 'Segoe UI', 'Trebuchet MS', system-ui, -apple-system, sans-serif" font-size="13" fill="#2257BF" text-anchor="middle" font-weight="500">70 cm</text>
  <path d="M712.25 89.75 C712.09 142.25 712.58 210.75 715.01 263.82" stroke="#2257BF" stroke-width="1.3" fill="none" stroke-linecap="round" stroke-linejoin="round" />
  <path d="M714.17 261.96 C712.91 259.97 712.11 257.44 711.9 255.39" stroke="#2257BF" stroke-width="1.3" fill="none" stroke-linecap="round" stroke-linejoin="round" />
  <path d="M713.75 261.99 C715.56 260.06 716.34 257.59 716.53 255.58" stroke="#2257BF" stroke-width="1.3" fill="none" stroke-linecap="round" stroke-linejoin="round" />
  <path d="M714.1 90.16 C714.48 91.72 715.99 94.36 716.69 96.89" stroke="#2257BF" stroke-width="1.3" fill="none" stroke-linecap="round" stroke-linejoin="round" />
  <path d="M713.92 90.07 C713.21 92.21 712.75 94.63 711.38 96.33" stroke="#2257BF" stroke-width="1.3" fill="none" stroke-linecap="round" stroke-linejoin="round" />
  <path d="M718.71 89.92 C715.75 90.77 712.32 88.9 709 90.04" stroke="#2257BF" stroke-width="1.3" fill="none" stroke-linecap="round" stroke-linejoin="round" />
  <path d="M719.01 261.78 C716.1 262.94 711.98 260.52 708.41 262.65" stroke="#2257BF" stroke-width="1.3" fill="none" stroke-linecap="round" stroke-linejoin="round" />
  <text x="722" y="176" font-family="ui-rounded, 'Segoe UI', 'Trebuchet MS', system-ui, -apple-system, sans-serif" font-size="13" fill="#2257BF" text-anchor="start" font-weight="500" dominant-baseline="middle">70 cm</text>
  <text x="606" y="68" font-family="ui-rounded, 'Segoe UI', 'Trebuchet MS', system-ui, -apple-system, sans-serif" font-size="14.5" fill="#33383D" text-anchor="middle" font-weight="700">vierkant mangat</text>
  <text x="606" y="296" font-family="ui-rounded, 'Segoe UI', 'Trebuchet MS', system-ui, -apple-system, sans-serif" font-size="14" fill="#2257BF" text-anchor="middle" font-weight="600">0,70 × 0,70 = 0,49 m²</text>
  <text x="410" y="316" font-family="ui-rounded, 'Segoe UI', 'Trebuchet MS', system-ui, -apple-system, sans-serif" font-size="12.5" fill="#7C848C" text-anchor="middle" font-weight="500" font-style="italic">Meet de binnenmaat van de opening bovenaan de put.  Een schatting volstaat.</text>
</svg>
